<mxfile host="app.diagrams.net" modified="2020-11-27T01:58:51.580Z" agent="5.0 (Windows NT 10.0; Win64; x64) AppleWebKit/537.36 (KHTML, like Gecko) Chrome/87.0.4280.66 Safari/537.36" etag="fDWwdW5jlApT9ArOf-hO" version="13.10.4" type="github">
  <diagram id="O44F6LSMyTjG574kcMWW" name="Page-1">
    <mxGraphModel dx="2076" dy="1160" grid="1" gridSize="10" guides="1" tooltips="1" connect="1" arrows="1" fold="1" page="1" pageScale="1" pageWidth="850" pageHeight="1100" math="0" shadow="0">
      <root>
        <mxCell id="0" />
        <mxCell id="1" parent="0" />
        <mxCell id="nZPYKRQLn7P3eo--qqiw-4" value="" style="rounded=0;whiteSpace=wrap;html=1;" vertex="1" parent="1">
          <mxGeometry x="70" y="110" width="140" height="360" as="geometry" />
        </mxCell>
        <mxCell id="U8Y4y8M3PIToL53fr3h2-3" value="&lt;font style=&quot;font-size: 23px&quot;&gt;Users&lt;/font&gt;" style="text;html=1;align=center;verticalAlign=middle;resizable=0;points=[];autosize=1;" parent="1" vertex="1">
          <mxGeometry x="100" y="120" width="80" height="20" as="geometry" />
        </mxCell>
        <mxCell id="U8Y4y8M3PIToL53fr3h2-4" value="&lt;font style=&quot;font-size: 16px&quot;&gt;Username&lt;/font&gt;" style="rounded=0;whiteSpace=wrap;html=1;" parent="1" vertex="1">
          <mxGeometry x="80" y="160" width="120" height="60" as="geometry" />
        </mxCell>
        <mxCell id="nZPYKRQLn7P3eo--qqiw-1" value="&lt;font style=&quot;font-size: 16px&quot;&gt;Community rating&lt;/font&gt;" style="rounded=0;whiteSpace=wrap;html=1;" vertex="1" parent="1">
          <mxGeometry x="80" y="240" width="120" height="60" as="geometry" />
        </mxCell>
        <mxCell id="nZPYKRQLn7P3eo--qqiw-2" value="&lt;font style=&quot;font-size: 16px&quot;&gt;Following&lt;/font&gt;" style="rounded=0;whiteSpace=wrap;html=1;" vertex="1" parent="1">
          <mxGeometry x="80" y="320" width="120" height="60" as="geometry" />
        </mxCell>
        <mxCell id="nZPYKRQLn7P3eo--qqiw-3" value="&lt;font style=&quot;font-size: 16px&quot;&gt;Topics of interest&lt;/font&gt;" style="rounded=0;whiteSpace=wrap;html=1;" vertex="1" parent="1">
          <mxGeometry x="80" y="400" width="120" height="60" as="geometry" />
        </mxCell>
        <mxCell id="nZPYKRQLn7P3eo--qqiw-37" style="edgeStyle=orthogonalEdgeStyle;rounded=0;orthogonalLoop=1;jettySize=auto;html=1;exitX=0.5;exitY=1;exitDx=0;exitDy=0;entryX=0;entryY=0.398;entryDx=0;entryDy=0;entryPerimeter=0;" edge="1" parent="1" source="nZPYKRQLn7P3eo--qqiw-5" target="nZPYKRQLn7P3eo--qqiw-13">
          <mxGeometry relative="1" as="geometry" />
        </mxCell>
        <mxCell id="nZPYKRQLn7P3eo--qqiw-5" value="" style="rounded=0;whiteSpace=wrap;html=1;" vertex="1" parent="1">
          <mxGeometry x="280" y="110" width="140" height="520" as="geometry" />
        </mxCell>
        <mxCell id="nZPYKRQLn7P3eo--qqiw-6" value="&lt;font style=&quot;font-size: 23px&quot;&gt;Posts&lt;/font&gt;" style="text;html=1;align=center;verticalAlign=middle;resizable=0;points=[];autosize=1;" vertex="1" parent="1">
          <mxGeometry x="315" y="120" width="70" height="20" as="geometry" />
        </mxCell>
        <mxCell id="nZPYKRQLn7P3eo--qqiw-7" value="&lt;font style=&quot;font-size: 16px&quot;&gt;Unique post ID&lt;/font&gt;" style="rounded=0;whiteSpace=wrap;html=1;" vertex="1" parent="1">
          <mxGeometry x="290" y="160" width="120" height="60" as="geometry" />
        </mxCell>
        <mxCell id="nZPYKRQLn7P3eo--qqiw-8" value="&lt;font style=&quot;font-size: 16px&quot;&gt;Caption&lt;/font&gt;" style="rounded=0;whiteSpace=wrap;html=1;" vertex="1" parent="1">
          <mxGeometry x="290" y="240" width="120" height="60" as="geometry" />
        </mxCell>
        <mxCell id="nZPYKRQLn7P3eo--qqiw-9" value="&lt;font style=&quot;font-size: 16px&quot;&gt;Timestamp&lt;/font&gt;" style="rounded=0;whiteSpace=wrap;html=1;" vertex="1" parent="1">
          <mxGeometry x="290" y="320" width="120" height="60" as="geometry" />
        </mxCell>
        <mxCell id="nZPYKRQLn7P3eo--qqiw-10" value="&lt;font style=&quot;font-size: 16px&quot;&gt;Topic&lt;/font&gt;" style="rounded=0;whiteSpace=wrap;html=1;" vertex="1" parent="1">
          <mxGeometry x="290" y="400" width="120" height="60" as="geometry" />
        </mxCell>
        <mxCell id="nZPYKRQLn7P3eo--qqiw-11" value="&lt;font style=&quot;font-size: 16px&quot;&gt;Content&lt;/font&gt;" style="rounded=0;whiteSpace=wrap;html=1;" vertex="1" parent="1">
          <mxGeometry x="290" y="480" width="120" height="60" as="geometry" />
        </mxCell>
        <mxCell id="nZPYKRQLn7P3eo--qqiw-12" value="&lt;font style=&quot;font-size: 16px&quot;&gt;Username&lt;/font&gt;" style="rounded=0;whiteSpace=wrap;html=1;" vertex="1" parent="1">
          <mxGeometry x="290" y="560" width="120" height="60" as="geometry" />
        </mxCell>
        <mxCell id="nZPYKRQLn7P3eo--qqiw-13" value="" style="rounded=0;whiteSpace=wrap;html=1;" vertex="1" parent="1">
          <mxGeometry x="385" y="670" width="140" height="520" as="geometry" />
        </mxCell>
        <mxCell id="nZPYKRQLn7P3eo--qqiw-14" value="&lt;font style=&quot;font-size: 23px&quot;&gt;Responses&lt;/font&gt;" style="text;html=1;align=center;verticalAlign=middle;resizable=0;points=[];autosize=1;" vertex="1" parent="1">
          <mxGeometry x="390" y="680" width="130" height="20" as="geometry" />
        </mxCell>
        <mxCell id="nZPYKRQLn7P3eo--qqiw-15" value="&lt;font style=&quot;font-size: 16px&quot;&gt;Unique response ID&lt;/font&gt;" style="rounded=0;whiteSpace=wrap;html=1;" vertex="1" parent="1">
          <mxGeometry x="395" y="720" width="120" height="60" as="geometry" />
        </mxCell>
        <mxCell id="nZPYKRQLn7P3eo--qqiw-16" value="&lt;font style=&quot;font-size: 16px&quot;&gt;Caption&lt;/font&gt;" style="rounded=0;whiteSpace=wrap;html=1;" vertex="1" parent="1">
          <mxGeometry x="395" y="800" width="120" height="60" as="geometry" />
        </mxCell>
        <mxCell id="nZPYKRQLn7P3eo--qqiw-17" value="&lt;font style=&quot;font-size: 16px&quot;&gt;Timestamp&lt;/font&gt;" style="rounded=0;whiteSpace=wrap;html=1;" vertex="1" parent="1">
          <mxGeometry x="395" y="880" width="120" height="60" as="geometry" />
        </mxCell>
        <mxCell id="nZPYKRQLn7P3eo--qqiw-18" value="&lt;font style=&quot;font-size: 16px&quot;&gt;Topic&lt;/font&gt;" style="rounded=0;whiteSpace=wrap;html=1;" vertex="1" parent="1">
          <mxGeometry x="395" y="960" width="120" height="60" as="geometry" />
        </mxCell>
        <mxCell id="nZPYKRQLn7P3eo--qqiw-19" value="&lt;font style=&quot;font-size: 16px&quot;&gt;Content&lt;/font&gt;" style="rounded=0;whiteSpace=wrap;html=1;" vertex="1" parent="1">
          <mxGeometry x="395" y="1040" width="120" height="60" as="geometry" />
        </mxCell>
        <mxCell id="nZPYKRQLn7P3eo--qqiw-20" value="&lt;font style=&quot;font-size: 16px&quot;&gt;Username&lt;/font&gt;" style="rounded=0;whiteSpace=wrap;html=1;" vertex="1" parent="1">
          <mxGeometry x="395" y="1120" width="120" height="60" as="geometry" />
        </mxCell>
        <mxCell id="nZPYKRQLn7P3eo--qqiw-38" style="edgeStyle=orthogonalEdgeStyle;rounded=0;orthogonalLoop=1;jettySize=auto;html=1;exitX=0.5;exitY=1;exitDx=0;exitDy=0;entryX=0;entryY=0.5;entryDx=0;entryDy=0;" edge="1" parent="1" source="nZPYKRQLn7P3eo--qqiw-21" target="nZPYKRQLn7P3eo--qqiw-29">
          <mxGeometry relative="1" as="geometry" />
        </mxCell>
        <mxCell id="nZPYKRQLn7P3eo--qqiw-21" value="" style="rounded=0;whiteSpace=wrap;html=1;" vertex="1" parent="1">
          <mxGeometry x="490" y="110" width="140" height="520" as="geometry" />
        </mxCell>
        <mxCell id="nZPYKRQLn7P3eo--qqiw-22" value="&lt;font style=&quot;font-size: 23px&quot;&gt;Plans&lt;/font&gt;" style="text;html=1;align=center;verticalAlign=middle;resizable=0;points=[];autosize=1;" vertex="1" parent="1">
          <mxGeometry x="525" y="120" width="70" height="20" as="geometry" />
        </mxCell>
        <mxCell id="nZPYKRQLn7P3eo--qqiw-23" value="&lt;font style=&quot;font-size: 16px&quot;&gt;Unique plan ID&lt;/font&gt;" style="rounded=0;whiteSpace=wrap;html=1;" vertex="1" parent="1">
          <mxGeometry x="500" y="160" width="120" height="60" as="geometry" />
        </mxCell>
        <mxCell id="nZPYKRQLn7P3eo--qqiw-24" value="&lt;font style=&quot;font-size: 16px&quot;&gt;Title&lt;/font&gt;" style="rounded=0;whiteSpace=wrap;html=1;" vertex="1" parent="1">
          <mxGeometry x="500" y="240" width="120" height="60" as="geometry" />
        </mxCell>
        <mxCell id="nZPYKRQLn7P3eo--qqiw-25" value="&lt;font style=&quot;font-size: 16px&quot;&gt;Creator&lt;/font&gt;" style="rounded=0;whiteSpace=wrap;html=1;" vertex="1" parent="1">
          <mxGeometry x="500" y="320" width="120" height="60" as="geometry" />
        </mxCell>
        <mxCell id="nZPYKRQLn7P3eo--qqiw-26" value="&lt;font style=&quot;font-size: 16px&quot;&gt;Category&lt;/font&gt;" style="rounded=0;whiteSpace=wrap;html=1;" vertex="1" parent="1">
          <mxGeometry x="500" y="400" width="120" height="60" as="geometry" />
        </mxCell>
        <mxCell id="nZPYKRQLn7P3eo--qqiw-27" value="&lt;font style=&quot;font-size: 16px&quot;&gt;Created date&lt;/font&gt;" style="rounded=0;whiteSpace=wrap;html=1;" vertex="1" parent="1">
          <mxGeometry x="500" y="480" width="120" height="60" as="geometry" />
        </mxCell>
        <mxCell id="nZPYKRQLn7P3eo--qqiw-28" value="&lt;span style=&quot;font-size: 16px&quot;&gt;Users who follow&lt;/span&gt;" style="rounded=0;whiteSpace=wrap;html=1;" vertex="1" parent="1">
          <mxGeometry x="500" y="560" width="120" height="60" as="geometry" />
        </mxCell>
        <mxCell id="nZPYKRQLn7P3eo--qqiw-29" value="" style="rounded=0;whiteSpace=wrap;html=1;" vertex="1" parent="1">
          <mxGeometry x="650" y="670" width="140" height="280" as="geometry" />
        </mxCell>
        <mxCell id="nZPYKRQLn7P3eo--qqiw-30" value="&lt;font style=&quot;font-size: 23px&quot;&gt;Sessions&lt;/font&gt;" style="text;html=1;align=center;verticalAlign=middle;resizable=0;points=[];autosize=1;" vertex="1" parent="1">
          <mxGeometry x="665" y="680" width="110" height="20" as="geometry" />
        </mxCell>
        <mxCell id="nZPYKRQLn7P3eo--qqiw-31" value="&lt;font style=&quot;font-size: 16px&quot;&gt;Muscle groups&lt;/font&gt;" style="rounded=0;whiteSpace=wrap;html=1;" vertex="1" parent="1">
          <mxGeometry x="660" y="720" width="120" height="60" as="geometry" />
        </mxCell>
        <mxCell id="nZPYKRQLn7P3eo--qqiw-32" value="&lt;font style=&quot;font-size: 16px&quot;&gt;Suggested duration&lt;/font&gt;" style="rounded=0;whiteSpace=wrap;html=1;" vertex="1" parent="1">
          <mxGeometry x="660" y="800" width="120" height="60" as="geometry" />
        </mxCell>
        <mxCell id="nZPYKRQLn7P3eo--qqiw-33" value="&lt;font style=&quot;font-size: 16px&quot;&gt;Workouts&lt;/font&gt;" style="rounded=0;whiteSpace=wrap;html=1;" vertex="1" parent="1">
          <mxGeometry x="660" y="880" width="120" height="60" as="geometry" />
        </mxCell>
      </root>
    </mxGraphModel>
  </diagram>
</mxfile>
